# xmcd CD database file
#
# Track frame offsets:
#	150
#	23890
#	55247
#	74790
#	100937
#	123945
#	156012
#	185120
#	204522
#	226522
#	263642
#	287745
#
# Disc length: 4126 seconds
#
# Revision: 2
# Processed by: cddbd v1.5.1PL2 Copyright (c) Steve Scherf et al.
# Submitted via: CDex 1.50
#
DISCID=a8101c0c
DTITLE=Hoopsnakes - Live Snakes
DYEAR=1993
DGENRE=Blues
TTITLE0=Meet Me Tomorrow Night/Hello Josephine
TTITLE1=Forty Days
TTITLE2=Music Maestro Please
TTITLE3=The World Aint Round
TTITLE4=Rain on my Parade
TTITLE5=I Can Tell
TTITLE6=Next Time You See Me
TTITLE7=Home Away From Home
TTITLE8=Love Made A Fool of Me
TTITLE9=Further Down The Road
TTITLE10=Wine Spo-Dee-O-Dee
TTITLE11=Jump In and Hang On
EXTD=YEAR: 1993
EXTT0=
EXTT1=
EXTT2=
EXTT3=
EXTT4=
EXTT5=
EXTT6=
EXTT7=
EXTT8=
EXTT9=
EXTT10=
EXTT11=
PLAYORDER=
